# xmcd CD database file
#
# Track frame offsets:
#	150
#	14921
#	47378
#	73660
#	88982
#	109583
#	130372
#	149745
#	174470
#
# Disc length: 2917 seconds
#
# Revision: 0
# Processed by: cddbd v1.5.2PL0 Copyright (c) Steve Scherf et al.
# Submitted via: CDex 1.70beta2
#
DISCID=860b6309
DTITLE=Prosecco - Jazz - Jazz Classics
DYEAR=2007
DGENRE=Jazz
TTITLE0=Israel
TTITLE1=Blue in green
TTITLE2=Time remembered
TTITLE3=Come away with me
TTITLE4=Cry me a river
TTITLE5=Dolphin Dance
TTITLE6=Good bye pork pie hat
TTITLE7=All blues
TTITLE8=My funny valentine
EXTD=YEAR: 2007
EXTT0=
EXTT1=
EXTT2=
EXTT3=
EXTT4=
EXTT5=
EXTT6=
EXTT7=
EXTT8=
PLAYORDER=
